<svg width="136" height="62" viewBox="0 0 136 62" fill="none" xmlns="http://www.w3.org/2000/svg">
<circle cx="9.5" cy="9.5" r="9.5" transform="matrix(1 0 0 -1 21.1 40.1)" fill="#F2CC4F"/>
<ellipse cx="10" cy="9.5" rx="10" ry="9.5" transform="matrix(1 0 0 -1 57.1 40.1)" fill="#F2CC4F"/>
<circle cx="9.5" cy="9.5" r="9.5" transform="matrix(1 0 0 -1 95.1 40.1)" fill="#F2CC4F"/>
<g filter="url(#filter0_f_522_268)">
<circle cx="9.5" cy="9.5" r="9.5" transform="matrix(1 0 0 -1 21.1 40.1)" fill="#F2CC4F"/>
</g>
<g filter="url(#filter1_f_522_268)">
<ellipse cx="10" cy="9.5" rx="10" ry="9.5" transform="matrix(1 0 0 -1 57.1 40.1)" fill="#F2CC4F"/>
</g>
<g filter="url(#filter2_f_522_268)">
<circle cx="9.5" cy="9.5" r="9.5" transform="matrix(1 0 0 -1 95.1 40.1)" fill="#F2CC4F"/>
</g>
<defs>
<filter id="filter0_f_522_268" x="-2.47955e-05" y="-2.47955e-05" width="61.2" height="61.2" filterUnits="userSpaceOnUse" color-interpolation-filters="sRGB">
<feFlood flood-opacity="0" result="BackgroundImageFix"/>
<feBlend mode="normal" in="SourceGraphic" in2="BackgroundImageFix" result="shape"/>
<feGaussianBlur stdDeviation="10.55" result="effect1_foregroundBlur_522_268"/>
</filter>
<filter id="filter1_f_522_268" x="36" y="-2.47955e-05" width="62.2" height="61.2" filterUnits="userSpaceOnUse" color-interpolation-filters="sRGB">
<feFlood flood-opacity="0" result="BackgroundImageFix"/>
<feBlend mode="normal" in="SourceGraphic" in2="BackgroundImageFix" result="shape"/>
<feGaussianBlur stdDeviation="10.55" result="effect1_foregroundBlur_522_268"/>
</filter>
<filter id="filter2_f_522_268" x="74" y="-2.47955e-05" width="61.2" height="61.2" filterUnits="userSpaceOnUse" color-interpolation-filters="sRGB">
<feFlood flood-opacity="0" result="BackgroundImageFix"/>
<feBlend mode="normal" in="SourceGraphic" in2="BackgroundImageFix" result="shape"/>
<feGaussianBlur stdDeviation="10.55" result="effect1_foregroundBlur_522_268"/>
</filter>
</defs>
</svg>
